<svg width="512" height="512" viewBox="0 0 512 512" xmlns="http://www.w3.org/2000/svg"><mask id="satori_om-id"><rect x="0" y="0" width="512" height="512" fill="#fff"/></mask><path x="0" y="0" width="512" height="512" fill="#FFFF00" d="M92,0 h328 a92,92 0 0 1 92,92 v328 a92,92 0 0 1 -92,92 h-328 a92,92 0 0 1 -92,-92 v-328 a92,92 0 0 1 92,-92"/><g  ><path fill="#0B0B0B" d="M203.7 392L167.0 355.3L167.0 309.8L203.7 273.1L304.6 273.1L304.6 248.0L292.2 235.6L232.4 235.6L220.4 248.0L220.4 259.1L168.6 259.1L168.6 236.4L211.2 193.3L313.8 193.3L356.5 236.4L356.5 392L309.0 392L309.0 363.7L279.5 392L203.7 392ZM228.8 351.3L275.9 351.3L304.6 323.8L304.6 310.6L229.6 310.6L218.8 321.4L218.8 341.3L228.8 351.3Z "/></g></svg>